PathFileType	4	(X/Y/Z)	/Users/niels/Desktop/University/Third Semester/Perception and Action/Exam/Gymnastics Motion Tracking/Code for Gym Tracking/Analyzed Data/Webcam_Backflip/id2005_1_baseline_Sports2D/id2005_1_baseline_Sports2D_px_person00.trc
DataRate	CameraRate	NumFrames	NumMarkers	Units	OrigDataRate	OrigDataStartFrame	OrigNumFrames
29.75	29.75	8	22	m	29.75	90	120
Frame#	Time	Hip			RHip			RKnee			RAnkle			RBigToe			RSmallToe			RHeel			LHip			LKnee			LAnkle			LBigToe			LSmallToe			LHeel			Neck			Head			Nose			RShoulder			RElbow			RWrist			LShoulder			LElbow			LWrist		
		X1	Y1	Z1	X2	Y2	Z2	X3	Y3	Z3	X4	Y4	Z4	X5	Y5	Z5	X6	Y6	Z6	X7	Y7	Z7	X8	Y8	Z8	X9	Y9	Z9	X10	Y10	Z10	X11	Y11	Z11	X12	Y12	Z12	X13	Y13	Z13	X14	Y14	Z14	X15	Y15	Z15	X16	Y16	Z16	X17	Y17	Z17	X18	Y18	Z18	X19	Y19	Z19	X20	Y20	Z20	X21	Y21	Z21	X22	Y22	Z22
90	3.0252100840336134	0.9188340299773721	-1.0284881168699456	0.0	0.6193860128096969	-0.9990770875924135	0.0	1.535258018224001	-0.9945474201972611	0.0	0.760760012734342	-0.9239512315940659	0.0			0.0	1.4493984375	-0.841671875	0.0	1.038313461278349	-1.0138622975142482	0.0	1.1303448977061166	-0.98730294080777	0.0	1.5238583198146778	-1.0048404492772978	0.0	1.1828027343445382	-0.807025390958305	0.0	1.3516827794770285	-0.5833801311690231	0.0	1.2518017579718819	-0.5681826194937081	0.0	0.9959014508148046	-1.044368883555477	0.0	0.9446868618362032	-0.5711604225609095	0.0	0.9284258492239807	-0.24075434012421554	0.0	0.9429059476282018	-0.4240884305605297	0.0	0.6584833492996262	-0.6762896221140157	0.0	0.4193039718796144	-1.0378633276574978	0.0	0.498708296065251	-1.0220802669984983	0.0	1.2769030584926007	-0.6542951822022584	0.0	1.653556088334662	-1.038626384940303	0.0	1.512077715986667	-1.0219771902448094	0.0
91	3.0588235294117645	0.9188254069621179	-1.0285159531814996	0.0	0.6194230988238447	-0.9990838608219417	0.0	1.542595070737716	-0.9957556201483361	0.0	0.7607599832459804	-0.9239512244676018	0.0			0.0	1.4493984375	-0.841671875	0.0	1.0383134912110357	-1.0138623115624408	0.0	1.130345934486378	-0.9872983196902049	0.0	1.523793752453602	-1.004795589565684	0.0	1.1828027343459233	-0.8070253906773102	0.0	1.3518549120871295	-0.5835628630297578	0.0	1.2518017578960887	-0.5681826184622913	0.0	0.9959896632993341	-1.0443679624444069	0.0	0.9450818035393779	-0.5696110112335396	0.0	0.9285534291195016	-0.24090358727883035	0.0	0.9429007669440602	-0.42441658540134014	0.0	0.6602555170290898	-0.6743038506281775	0.0	0.420193425849236	-1.0377489440832854	0.0	0.4975792902038654	-1.0224371920545017	0.0	1.2769416775668696	-0.6519642114157861	0.0	1.6533716473783675	-1.0388507789698298	0.0	1.511134284664986	-1.022023711787971	0.0
92	3.0924369747899156	0.9188374588175325	-1.0285282813667371	0.0	0.6194330339747223	-0.9990856595577796	0.0	1.5404681754623886	-0.9970037893849275	0.0	0.7607599123544063	-0.9239512073351925	0.0			0.0	1.4493984375	-0.841671875	0.0	1.0383134996148127	-1.0138623155065531	0.0	1.130345276876861	-0.9872970624141052	0.0	1.5237068423923323	-1.004778316798558	0.0	1.1828027343543406	-0.8070253905472006	0.0	1.351985787332084	-0.5836437504146731	0.0	1.2518017578422471	-0.5681826176925553	0.0	0.9958743858739906	-1.0444213392487744	0.0	0.9452983901892512	-0.569238667153768	0.0	0.928376320858774	-0.24099808927321612	0.0	0.9435771823658708	-0.42481106955962356	0.0	0.6596792850598016	-0.6749016779984052	0.0	0.4193473536205324	-1.0378591609650623	0.0	0.49707857063867555	-1.0231204541057137	0.0	1.277816068910035	-0.6522842726861867	0.0	1.6543115997962703	-1.0390532993582644	0.0	1.5115934004245783	-1.0222256281113116	0.0
93	3.1260504201680672	0.9188917333925158	-1.0284950155025554	0.0	0.6193705054675726	-0.9990742562765106	0.0	1.5168056688694609	-0.9975329335751455	0.0	0.7607598434995622	-0.9239511906949985	0.0			0.0	1.4493984375	-0.841671875	0.0	1.038313496863905	-1.0138623142154803	0.0	1.1303434733061026	-0.9873048242939935	0.0	1.5236224936461176	-1.0048392242478579	0.0	1.1828027343633896	-0.807025390514483	0.0	1.3519311894633894	-0.5834250593230015	0.0	1.2518017578119947	-0.5681826172385325	0.0	0.9953414606111772	-1.044571443774062	0.0	0.9449319052651931	-0.5719398474349925	0.0	0.9275658841101299	-0.2408945131230284	0.0	0.9454628186382718	-0.42509992909547817	0.0	0.6538245079581128	-0.6813454899455882	0.0	0.4149234126543695	-1.0384112512934551	0.0	0.49924961692034814	-1.0241440588629949	0.0	1.2800827959870253	-0.6587602275454604	0.0	1.6573570859256261	-1.0390559497169816	0.0	1.5151945105683906	-1.0226657051059165	0.0
94	3.1596638655462184	0.9190128483991653	-1.0283730462777736	0.0	0.6191732658591835	-0.9990383308887663	0.0	1.4564410438538455	-0.9959744067012987	0.0	0.7607597940639728	-0.9239511787478673	0.0			0.0	1.4493984375	-0.841671875	0.0	1.0383134902505786	-1.0138623111116734	0.0	1.130340387277501	-0.9873293601844272	0.0	1.523599519347282	-1.0050497408465062	0.0	1.1828027343702578	-0.8070253905307969	0.0	1.3514631152712244	-0.5826236609929124	0.0	1.2518017577996428	-0.5681826170373415	0.0	0.9941451191522113	-1.0448577820407796	0.0	0.9433945477941472	-0.5803092254757938	0.0	0.9257471332726291	-0.24038190336510085	0.0	0.9490477273844712	-0.4249416566578668	0.0	0.6390264811939479	-0.6977305000470843	0.0	0.40474929723450354	-1.0396662311974845	0.0	0.5067572478661337	-1.025321948816923	0.0	1.284241150320891	-0.6758884844860611	0.0	1.6635186783518552	-1.0385704638207471	0.0	1.5240669335202208	-1.0233934713396426	0.0
95	3.1932773109243695	0.9192167484792287	-1.0281159093702452	0.0	0.6187786499582912	-0.9989664800990581	0.0	1.3466235832253906	-0.9903772790480986	0.0	0.7607597659834477	-0.9239511719616279	0.0			0.0	1.4493984375	-0.841671875	0.0	1.0383134838272545	-1.0138623080970395	0.0	1.1303355274911857	-0.9873784717229016	0.0	1.5237403315788574	-1.0054850905415351	0.0	1.1828027343743726	-0.8070253905629492	0.0	1.3502995089957306	-0.580934568069731	0.0	1.251801757798013	-0.5681826169948055	0.0	0.9921236440149426	-1.0452869794960937	0.0	0.9400319006952614	-0.5969344957114783	0.0	0.9226747365226463	-0.23921855167806066	0.0	0.9544086145923302	-0.4238043618390433	0.0	0.6122416755618688	-0.7274871674644986	0.0	0.3872945217568288	-1.0418084740250784	0.0	0.52226973739981	-1.0261038829455604	0.0	1.2902893534102375	-0.7076183696195769	0.0	1.6732101527709402	-1.0372232581004237	0.0	1.5399069841449124	-1.0243432366969023	0.0
96	3.226890756302521	0.9194879388208558	-1.0276993937731136	0.0	0.6181638867794839	-0.9988545589245892	0.0	1.1887889035264312	-0.9786552426271923	0.0	0.7607597542950455	-0.9239511691368834	0.0			0.0	1.4493984375	-0.841671875	0.0	1.038313479215512	-1.0138623059326282	0.0	1.1303286354328368	-0.987454992112385	0.0	1.5241859623058696	-1.0061805312969585	0.0	1.1828027343762404	-0.8070253905929643	0.0	1.3482116861266762	-0.5781991670067148	0.0	1.2518017578012488	-0.5681826170292397	0.0	0.9894246209852737	-1.045781696948645	0.0	0.934451773472849	-0.6226921266219456	0.0	0.918575412225731	-0.2372437172395642	0.0	0.9605698269561722	-0.42104058797951893	0.0	0.5739259641296718	-0.7701889626522965	0.0	0.36359973189070655	-1.044708118387278	0.0	0.5468994432280537	-1.025416220503862	0.0	1.2969913287258024	-0.7539830554738913	0.0	1.6851253160606425	-1.0346739973583239	0.0	1.5622636113653436	-1.0252115331614065	0.0
97	3.2605042016806722	0.9197448908491449	-1.0271690265172266	0.0	0.6174177036541831	-0.9987187181155888	0.0	1.008881822751276	-0.9595041956001794	0.0	0.7607597525271153	-0.9239511687096259	0.0			0.0	1.4493984375	-0.841671875	0.0	1.0383134765959388	-1.0138623047031938	0.0	1.1303205652623474	-0.9875478747663368	0.0	1.5250787926439235	-1.0070514658717795	0.0	1.1828027343766767	-0.8070253906139985	0.0	1.3452497177736997	-0.5747171004628177	0.0	1.2518017578056204	-0.5681826170861561	0.0	0.9868484405380349	-1.0461117554350052	0.0	0.9270168727092511	-0.6544962579718404	0.0	0.9144130336030516	-0.23453840558897313	0.0	0.9653491169044486	-0.41616655623751614	0.0	0.5305709851139521	-0.8186724003716901	0.0	0.3388701188725218	-1.0477637926919008	0.0	0.5780255199308644	-1.0218860152516263	0.0	1.3014808852835278	-0.8073485904012264	0.0	1.6953072848740867	-1.0307922350158727	0.0	1.5869725912935138	-1.0254636709311435	0.0
